<svg version="1.1" xmlns="http://www.w3.org/2000/svg" xmlns:xlink="http://www.w3.org/1999/xlink" width="631.00006" height="441.8352" viewBox="350.5,200.3953,631.00006,441.8352"><defs><linearGradient x1="627.96756" y1="381.36841" x2="897.97685" y2="663.42553" gradientUnits="userSpaceOnUse" id="color-1"><stop offset="0" stop-color="#f25e3d"/><stop offset="1" stop-color="#f2b84b"/></linearGradient><linearGradient x1="555.79432" y1="444.95346" x2="348.88502" y2="202.02569" gradientUnits="userSpaceOnUse" id="color-2"><stop offset="0" stop-color="#f29441"/><stop offset="1" stop-color="#f25e3d"/></linearGradient></defs><g fill="none" fill-rule="nonzero" stroke="#000000" stroke-width="0" stroke-linecap="round" stroke-linejoin="round" stroke-miterlimit="10" stroke-dasharray="" stroke-dashoffset="0" font-family="none" font-weight="none" font-size="none" text-anchor="none" style="mix-blend-mode: normal"><g><g id="Group 1"><path d="M900.32475,200.39537h80.40994l-41.46467,62.21242l-85.468,128.23376l-19.92654,29.89722l21.53813,32.3152l84.62178,126.96411l41.46467,62.21242h-80.40994h-376.28933h-80.14247l41.66213,-62.21242h80.14247h151.70566h141.45687l-65.95494,-98.95692l-18.66684,-28.0072l-21.53813,-32.3152l19.92654,-29.89722l20.27842,-30.42517l65.18957,-97.80858z" id="Path 1" fill="url(#color-1)"/><path d="M350.5,580.01798v-126.96411v-62.21241v-128.23375v-16.26156v-45.95085h68.89441h228.35348h92.79656l-41.66213,62.21241h-92.79656h-186.69135v128.23375h100.81634h91.77317l-40.63874,62.21241h-92.79656h-59.15421v88.33263l-25.87055,38.63148l-41.66213,62.21241z" id="Path 1" fill="url(#color-2)"/></g></g></g></svg>