<?xml version="1.0" standalone="no"?>
<!DOCTYPE svg PUBLIC "-//W3C//DTD SVG 20010904//EN"
 "http://www.w3.org/TR/2001/REC-SVG-20010904/DTD/svg10.dtd">
<svg version="1.0" xmlns="http://www.w3.org/2000/svg"
 width="700.000000pt" height="700.000000pt" viewBox="0 0 700.000000 700.000000"
 preserveAspectRatio="xMidYMid meet">
<metadata>
Created by potrace 1.14, written by Peter Selinger 2001-2017
</metadata>
<g transform="translate(0.000000,700.000000) scale(0.100000,-0.100000)"
fill="#000000" stroke="none">
<path d="M1876 6263 c-1 -1 -35 -4 -76 -8 -82 -6 -90 -7 -200 -31 -262 -57
-491 -235 -599 -467 -77 -165 -95 -311 -96 -764 l0 -293 -37 0 c-21 -1 -152
-1 -292 -1 l-253 -1 1 -256 1 -256 288 0 287 0 1 -25 c0 -14 1 -771 2 -1681
l2 -1655 325 -2 326 -3 -1 1684 0 1683 108 0 107 -1 0 -1551 0 -1551 305 0
305 0 1 1011 c0 1013 2 1113 15 1215 4 30 7 59 6 63 -1 4 9 65 23 134 46 228
113 362 244 493 73 73 102 94 191 138 151 75 233 95 405 96 77 0 157 -3 177
-7 60 -11 165 -54 212 -86 141 -97 230 -298 251 -566 2 -22 3 -592 4 -1266 l1
-1225 305 0 305 0 0 26 c0 14 2 534 4 1155 2 622 7 1150 11 1175 15 93 67 275
95 335 114 240 328 400 600 450 91 17 299 14 355 -4 260 -86 385 -219 430
-455 26 -141 28 -230 30 -1438 0 -675 5 -1231 9 -1235 10 -10 589 -12 596 -2
8 11 4 2562 -4 2654 -3 44 -8 89 -10 100 -2 11 -7 40 -11 65 -14 91 -58 236
-97 320 -121 254 -330 423 -617 495 -129 33 -212 42 -366 43 -209 0 -377 -36
-549 -118 -104 -49 -124 -62 -221 -136 -108 -82 -214 -192 -310 -321 l-38 -52
-22 54 c-108 265 -353 468 -645 536 -174 41 -469 48 -620 15 -303 -66 -583
-240 -759 -472 -25 -33 -50 -61 -56 -62 -6 -1 -10 85 -11 231 -1 127 -2 237
-3 244 -1 9 -89 12 -371 12 -204 0 -373 2 -378 5 -9 5 -7 391 2 496 19 214 84
336 209 399 92 45 153 56 332 56 94 0 195 -3 225 -7 169 -22 159 -22 164 3 6
27 32 176 40 229 3 19 8 46 11 60 3 14 12 68 20 120 9 52 18 104 21 116 6 22
7 22 -91 40 -80 14 -236 34 -315 40 -91 6 -299 11 -304 7z"/>
</g>
</svg>
