<?xml version="1.0" standalone="no"?>
<!DOCTYPE svg PUBLIC "-//W3C//DTD SVG 20010904//EN"
 "http://www.w3.org/TR/2001/REC-SVG-20010904/DTD/svg10.dtd">
<svg version="1.0" xmlns="http://www.w3.org/2000/svg"
 width="1262.000000pt" height="1262.000000pt" viewBox="0 0 1262.000000 1262.000000"
 preserveAspectRatio="xMidYMid meet">
<metadata>
Created by potrace 1.14, written by Peter Selinger 2001-2017
</metadata>
<g transform="translate(0.000000,1262.000000) scale(0.100000,-0.100000)"
fill="#000000" stroke="none">
<path d="M3 6658 c4 -3891 7 -4424 21 -4447 4 -5 2 -12 -4 -16 -6 -4 -7 -11
-4 -17 4 -6 7 -68 8 -139 2 -71 5 -131 8 -134 3 -3 20 19 39 50 18 30 37 55
41 55 4 0 8 5 8 12 0 6 11 26 25 44 14 18 25 37 25 43 0 6 4 11 8 11 5 0 15
12 23 28 8 15 16 29 19 32 3 3 60 86 125 185 66 99 126 186 133 193 6 7 12 17
12 21 0 4 9 18 20 31 11 13 20 29 20 36 0 7 4 14 8 16 7 3 174 246 252 367 14
21 38 58 55 82 16 24 34 52 40 61 5 9 29 44 53 78 23 34 42 66 42 71 0 5 4 9
8 9 4 0 21 23 37 50 16 28 33 50 38 50 4 0 6 4 3 9 -4 5 -3 11 1 13 5 1 44 57
88 123 44 66 83 122 88 123 4 2 7 8 7 13 0 5 16 32 35 59 19 27 35 54 35 60 0
5 4 10 9 10 5 0 18 15 28 33 19 32 20 60 21 897 0 476 1 874 1 885 1 20 7 20
1523 20 1003 0 1523 3 1525 10 2 6 59 96 128 200 69 105 129 197 132 205 4 8
11 20 16 25 4 6 55 82 112 170 57 88 109 165 114 172 6 7 11 14 11 17 0 9 64
101 72 104 4 2 8 8 8 12 0 10 189 303 201 310 4 3 4 12 -1 20 -6 8 -10 11 -10
5 0 -6 -24 -9 -57 -7 -70 3 -62 3 -143 1 -36 0 -69 0 -75 1 -5 1 -12 1 -15 0
-17 -6 -52 -5 -56 2 -3 4 -10 6 -15 2 -9 -5 -132 -9 -154 -4 -5 1 -12 1 -15 0
-17 -6 -52 -5 -56 2 -3 4 -10 6 -15 2 -8 -5 -291 -9 -314 -4 -5 1 -12 1 -15 0
-17 -6 -52 -5 -56 2 -3 4 -10 6 -15 2 -9 -5 -132 -9 -154 -4 -5 1 -12 1 -15 0
-17 -6 -52 -5 -56 2 -3 4 -10 6 -15 2 -9 -5 -120 -8 -144 -4 -5 2 -14 1 -20 0
-14 -2 -137 -3 -150 0 -5 1 -12 1 -15 0 -17 -6 -52 -5 -56 2 -3 4 -10 6 -15 2
-9 -5 -132 -9 -154 -4 -5 1 -12 1 -15 0 -17 -6 -52 -5 -56 2 -3 4 -10 6 -15 2
-8 -5 -291 -9 -314 -4 -5 1 -12 1 -15 0 -17 -6 -52 -5 -56 2 -3 4 -10 6 -15 2
-9 -5 -132 -9 -154 -4 -5 1 -12 1 -15 0 -17 -6 -52 -5 -56 2 -3 4 -10 6 -15 2
-9 -5 -120 -8 -144 -4 -5 2 -14 1 -20 0 -14 -2 -137 -3 -150 0 -5 1 -12 1 -15
0 -17 -6 -52 -5 -56 2 -3 4 -10 6 -15 2 -9 -5 -132 -9 -154 -4 -5 1 -12 1 -15
0 -17 -6 -52 -5 -56 2 -3 4 -10 6 -15 2 -8 -5 -291 -9 -314 -4 -5 1 -12 1 -15
0 -17 -6 -52 -5 -56 2 -3 4 -10 6 -15 2 -13 -8 -144 -8 -157 0 -6 3 -13 3 -16
-2 -2 -4 -26 -6 -52 -3 l-47 6 -1 1278 c-1 844 2 1277 9 1278 6 1 1264 2 2797
3 1532 1 2788 3 2790 6 2 3 25 38 52 79 27 41 53 79 58 85 5 6 50 74 100 151
51 77 95 142 98 145 3 3 11 17 19 32 8 15 22 36 31 45 9 10 29 39 44 65 15 25
33 52 41 58 8 7 12 16 9 21 -3 5 0 9 6 9 6 0 14 8 18 18 11 27 213 327 223
330 5 2 9 8 9 13 0 5 24 44 53 87 29 42 56 83 60 90 7 9 -775 12 -3893 12
l-3901 0 4 -4072z"/>
<path d="M10974 10695 c-10 -19 -22 -35 -26 -35 -3 0 -10 -9 -13 -20 -3 -11
-12 -26 -19 -32 -6 -7 -23 -31 -36 -53 -13 -22 -27 -42 -30 -45 -3 -3 -21 -30
-40 -60 -19 -30 -37 -57 -40 -60 -3 -3 -21 -30 -40 -60 -19 -30 -37 -57 -40
-60 -3 -3 -30 -43 -60 -90 -30 -47 -58 -86 -62 -88 -5 -2 -8 -7 -8 -12 0 -7
-79 -129 -107 -165 -4 -6 -123 -183 -263 -395 -140 -212 -257 -387 -260 -390
-3 -3 -30 -43 -60 -90 -30 -47 -57 -87 -60 -90 -3 -3 -21 -30 -40 -60 -19 -30
-38 -56 -42 -58 -5 -2 -8 -7 -8 -12 0 -7 -46 -77 -127 -194 -12 -17 -22 -37
-22 -43 -1 -7 -4 -13 -8 -13 -5 0 -21 -21 -38 -48 -16 -26 -32 -49 -35 -52 -3
-3 -21 -30 -40 -60 -19 -30 -40 -61 -47 -68 -7 -7 -13 -20 -13 -28 0 -8 -4
-14 -10 -14 -5 0 -10 -5 -10 -11 0 -6 -6 -16 -12 -23 -7 -8 -19 -22 -26 -32
-6 -11 -79 -120 -161 -244 -82 -124 -154 -231 -161 -237 -6 -7 -8 -13 -5 -13
4 0 0 -6 -7 -14 -8 -7 -34 -44 -58 -82 -25 -38 -49 -73 -53 -79 -5 -5 -51 -75
-102 -155 -52 -80 -98 -149 -103 -155 -4 -5 -48 -71 -97 -145 -49 -74 -93
-139 -98 -145 -5 -5 -33 -48 -62 -95 -30 -47 -58 -90 -63 -95 -5 -6 -75 -111
-156 -233 l-147 -223 65 -94 c36 -52 66 -97 66 -100 0 -3 17 -29 38 -58 22
-29 41 -56 43 -62 6 -14 262 -397 274 -411 6 -6 19 -27 30 -47 11 -20 23 -37
27 -37 5 0 8 -7 8 -15 0 -8 5 -15 10 -15 6 0 10 -4 10 -10 0 -5 26 -47 59 -93
32 -46 60 -88 62 -93 7 -15 123 -188 137 -202 6 -7 12 -17 12 -22 0 -5 6 -15
13 -22 6 -7 46 -65 87 -128 41 -63 79 -119 83 -125 10 -13 209 -310 222 -333
14 -24 88 -135 98 -147 9 -11 445 -665 462 -693 6 -9 60 -90 120 -180 61 -90
115 -171 120 -180 6 -9 15 -20 20 -24 6 -4 6 -8 2 -8 -5 0 -2 -7 5 -15 25 -28
34 -40 40 -55 5 -14 -392 -15 -3721 -15 -3092 0 -3728 -2 -3740 -13 -16 -15
-53 -69 -64 -92 -7 -15 -169 -256 -185 -275 -20 -25 -92 -137 -92 -145 0 -5
-4 -10 -8 -12 -11 -5 -132 -185 -132 -198 0 -5 -4 -10 -8 -10 -5 0 -17 -16
-28 -35 -10 -19 -21 -35 -25 -35 -4 0 -9 -8 -13 -17 -7 -21 -25 -50 -48 -77
-10 -11 -20 -28 -24 -38 -3 -10 -10 -18 -15 -18 -5 0 -9 -6 -9 -13 0 -7 -8
-22 -17 -33 -29 -32 -63 -82 -63 -92 0 -5 -9 -17 -20 -27 -11 -10 -20 -24 -20
-32 0 -7 -4 -13 -10 -13 -5 0 -10 -5 -10 -11 0 -6 -7 -17 -15 -25 -8 -9 -15
-20 -15 -25 0 -5 2070 -9 5365 -9 2951 0 5365 2 5365 4 0 3 -6 11 -13 18 -12
13 -68 94 -77 113 -7 15 -84 129 -90 135 -4 3 -17 23 -30 45 -13 22 -26 42
-30 45 -10 10 -79 116 -101 158 -7 12 -16 22 -21 22 -4 0 -8 7 -8 15 0 8 -4
15 -10 15 -5 0 -10 5 -10 10 0 6 -5 16 -10 23 -6 7 -28 39 -50 72 -22 33 -44
67 -50 75 -94 137 -121 178 -126 193 -4 9 -10 17 -15 17 -5 0 -9 7 -9 15 0 8
-4 15 -10 15 -5 0 -10 6 -10 13 0 8 -9 22 -20 32 -11 10 -20 24 -20 32 0 7 -4
13 -10 13 -5 0 -10 4 -10 10 0 9 -58 99 -71 110 -3 3 -8 10 -10 15 -8 20 -103
160 -113 167 -7 5 -7 8 -1 8 6 0 2 5 -7 11 -10 5 -18 15 -18 20 0 6 -21 40
-47 77 -48 66 -66 93 -80 122 -4 8 -12 20 -17 27 -22 25 -32 39 -66 93 -19 30
-37 57 -40 60 -3 3 -11 17 -19 33 -8 15 -18 27 -23 27 -4 0 -8 6 -8 13 0 10
-16 33 -62 87 -7 8 -12 16 -10 18 4 4 -131 206 -140 210 -5 2 -8 8 -8 13 0 9
-36 65 -50 79 -3 3 -11 17 -19 32 -8 16 -18 28 -23 28 -4 0 -8 5 -8 10 0 12
-41 73 -52 78 -5 2 -8 8 -8 13 0 9 -36 65 -50 79 -3 3 -11 17 -19 33 -8 15
-18 27 -23 27 -4 0 -8 7 -8 15 0 8 -4 15 -10 15 -5 0 -10 5 -10 12 0 6 -11 26
-25 44 -14 18 -25 37 -25 43 0 6 -4 11 -10 11 -5 0 -17 16 -26 36 -9 20 -23
38 -31 41 -7 3 -11 8 -8 13 2 4 -5 16 -15 28 -11 12 -20 24 -20 27 0 6 -58 93
-70 105 -3 3 -11 17 -19 32 -8 15 -22 37 -33 47 -10 11 -18 25 -18 31 0 5 -4
10 -10 10 -5 0 -10 6 -10 13 0 7 -9 23 -20 35 -11 12 -20 24 -20 28 0 4 -11
21 -24 38 -13 17 -23 35 -24 40 0 5 -4 12 -9 15 -10 7 -113 160 -113 167 0 3
-6 12 -12 19 -23 25 -33 40 -47 68 -8 15 -18 27 -23 27 -4 0 -8 5 -8 10 0 6
-16 33 -35 60 -19 27 -35 54 -35 59 0 5 -4 11 -8 13 -5 2 -30 37 -57 78 -27
41 -52 77 -57 78 -4 2 -8 10 -8 18 0 8 -4 14 -10 14 -5 0 -10 4 -10 9 0 12
-61 105 -72 109 -4 2 -8 8 -8 13 0 11 -142 223 -152 227 -4 2 -8 8 -8 14 0 5
-11 24 -25 42 -14 18 -25 38 -25 44 0 6 -4 12 -9 14 -4 2 -20 22 -35 46 -22
36 -25 46 -15 65 7 12 15 24 18 27 9 8 71 100 71 106 0 3 18 29 40 59 22 30
40 56 40 59 0 4 88 137 107 161 4 6 42 62 83 125 41 63 77 117 80 120 4 3 17
23 30 45 13 22 26 42 30 45 3 3 30 43 60 90 30 47 60 91 67 98 7 7 20 28 28
46 9 18 24 42 33 52 28 32 72 99 72 112 0 7 4 12 8 12 4 0 23 25 42 56 19 31
39 62 45 68 6 6 26 36 44 66 19 30 36 57 40 60 10 8 61 89 60 96 0 4 3 10 8
13 9 7 37 45 68 95 28 45 97 149 107 161 19 22 58 82 77 115 10 19 28 44 38
55 10 12 19 27 21 35 2 8 7 17 11 20 13 9 71 98 71 109 0 6 4 11 9 11 5 0 12
8 15 18 4 10 16 29 28 42 12 13 23 30 25 38 1 8 6 18 10 21 14 9 73 98 73 110
0 5 6 14 13 18 8 4 24 27 37 51 13 23 27 42 32 42 4 0 8 4 8 9 0 8 338 520
365 554 8 9 15 19 15 21 0 4 138 213 166 251 8 11 46 70 86 130 39 61 75 112
79 113 5 2 9 10 9 18 0 8 5 14 10 14 6 0 10 5 10 11 0 6 28 52 63 103 34 50
67 99 72 107 43 68 69 104 76 107 5 2 9 7 9 12 0 4 60 98 133 208 74 110 144
216 156 236 l23 36 -805 0 -804 0 -19 -35z"/>
</g>
</svg>
